<svg width="24" height="25" viewBox="0 0 24 25" fill="none" xmlns="http://www.w3.org/2000/svg">
<path d="M23.8032 7.15627C23.7344 7.05857 23.6431 6.97882 23.5371 6.92375C23.4311 6.86868 23.3133 6.83989 23.1939 6.83981H7.27663L6.07176 2.68482C5.59926 1.0487 4.47649 0.87207 4.01599 0.87207H0.803366C0.391593 0.87207 0.0585938 1.20545 0.0585938 1.61682C0.0585938 2.02819 0.391968 2.36155 0.803343 2.36155H4.01559C4.11721 2.36155 4.42734 2.36155 4.63886 3.09242L8.78373 18.3253C8.87373 18.6467 9.16661 18.8686 9.50071 18.8686H19.6249C19.9392 18.8686 20.2197 18.6718 20.3258 18.3759L23.8943 7.83652C23.9765 7.60814 23.9423 7.35389 23.8032 7.15627H23.8032ZM19.1008 17.3796H10.066L7.69525 8.32969H22.135L19.1008 17.3796ZM17.6237 20.3781C16.588 20.3781 15.7487 21.2173 15.7487 22.253C15.7487 23.2888 16.588 24.128 17.6237 24.128C18.6595 24.128 19.4987 23.2888 19.4987 22.253C19.4987 21.2173 18.6595 20.3781 17.6237 20.3781ZM10.8737 20.3781C9.838 20.3781 8.99875 21.2173 8.99875 22.253C8.99875 23.2888 9.838 24.128 10.8737 24.128C11.9095 24.128 12.7487 23.2888 12.7487 22.253C12.7487 21.2173 11.9095 20.3781 10.8737 20.3781Z" fill="white"/>
</svg>
